<?xml version="1.0" encoding="UTF-8" standalone="no"?>
<!-- Created with Inkscape (http://www.inkscape.org/) -->

<svg
   xmlns:dc="http://purl.org/dc/elements/1.1/"
   xmlns:cc="http://creativecommons.org/ns#"
   xmlns:rdf="http://www.w3.org/1999/02/22-rdf-syntax-ns#"
   xmlns:svg="http://www.w3.org/2000/svg"
   xmlns="http://www.w3.org/2000/svg"
   xmlns:sodipodi="http://sodipodi.sourceforge.net/DTD/sodipodi-0.dtd"
   xmlns:inkscape="http://www.inkscape.org/namespaces/inkscape"
   width="27"
   height="27"
   id="svg2"
   version="1.1"
   inkscape:version="0.48.2 r9819"
   sodipodi:docname="actionbar_icon.svg">
  <defs
     id="defs4">
    <filter
       id="filter3043"
       inkscape:label="Drop shadow"
       width="1.5"
       height="1.5"
       x="-.25"
       y="-.25">
      <feGaussianBlur
         id="feGaussianBlur3045"
         in="SourceAlpha"
         stdDeviation="1.1"
         result="blur" />
      <feColorMatrix
         id="feColorMatrix3047"
         result="bluralpha"
         type="matrix"
         values="1 0 0 0 0 0 1 0 0 0 0 0 1 0 0 0 0 0 0.5 0 " />
      <feOffset
         id="feOffset3049"
         in="bluralpha"
         dx="0"
         dy="2"
         result="offsetBlur" />
      <feMerge
         id="feMerge3051">
        <feMergeNode
           id="feMergeNode3053"
           in="offsetBlur" />
        <feMergeNode
           id="feMergeNode3055"
           in="SourceGraphic" />
      </feMerge>
    </filter>
  </defs>
  <sodipodi:namedview
     id="base"
     pagecolor="#ffffff"
     bordercolor="#666666"
     borderopacity="1.0"
     inkscape:pageopacity="0.0"
     inkscape:pageshadow="2"
     inkscape:zoom="26.1875"
     inkscape:cx="24.34724"
     inkscape:cy="15.505952"
     inkscape:document-units="px"
     inkscape:current-layer="layer1"
     showgrid="false"
     inkscape:window-width="1640"
     inkscape:window-height="1006"
     inkscape:window-x="40"
     inkscape:window-y="0"
     inkscape:window-maximized="1" />
  <metadata
     id="metadata7">
    <rdf:RDF>
      <cc:Work
         rdf:about="">
        <dc:format>image/svg+xml</dc:format>
        <dc:type
           rdf:resource="http://purl.org/dc/dcmitype/StillImage" />
        <dc:title />
      </cc:Work>
    </rdf:RDF>
  </metadata>
  <g
     inkscape:label="Layer 1"
     inkscape:groupmode="layer"
     id="layer1"
     transform="translate(0,-1025.3622)">
    <path
       sodipodi:type="arc"
       style="color:#000000;fill:#0000ff;fill-opacity:1;fill-rule:nonzero;stroke:none;stroke-width:1.07637715;marker:none;visibility:visible;display:inline;overflow:visible;filter:url(#filter3043);enable-background:accumulate"
       id="path2985"
       sodipodi:cx="12.75"
       sodipodi:cy="13.25"
       sodipodi:rx="10.25"
       sodipodi:ry="10"
       d="m 23,13.25 c 0,5.522847 -4.589081,10 -10.25,10 -5.6609187,0 -10.25,-4.477153 -10.25,-10 0,-5.5228475 4.5890813,-10 10.25,-10 5.660919,0 10.25,4.4771525 10.25,10 z"
       transform="translate(0.5,1024.3622)" />
    <text
       xml:space="preserve"
       style="font-size:9px;font-style:normal;font-weight:normal;line-height:125%;letter-spacing:0px;word-spacing:0px;fill:#000000;fill-opacity:1;stroke:none;font-family:Sans"
       x="13.491211"
       y="1035.6122"
       id="text3063"
       sodipodi:linespacing="125%"><tspan
         sodipodi:role="line"
         id="tspan3065"
         x="13.491211"
         y="1035.6122"
         style="font-size:6px;text-align:center;text-anchor:middle;fill:#ffffff">App</tspan><tspan
         sodipodi:role="line"
         x="13.491211"
         y="1043.1122"
         id="tspan3067"
         style="font-size:6px;text-align:center;text-anchor:middle;fill:#ffffff">Icon</tspan></text>
    <path
       sodipodi:type="spiral"
       style="fill:none;stroke:#000000;stroke-width:1px;stroke-linecap:butt;stroke-linejoin:miter;stroke-opacity:1"
       id="path3063"
       sodipodi:cx="8"
       sodipodi:cy="10"
       sodipodi:expansion="1"
       sodipodi:revolution="3"
       sodipodi:radius="3.5222507"
       sodipodi:argument="-21.511629"
       sodipodi:t0="0"
       d="M 8,10 C 7.8433175,9.9185251 8.032525,9.7485982 8.1354167,9.7395834 8.414247,9.7151536 8.5615273,10.035672 8.5208333,10.270833 8.4480413,10.691481 7.9758674,10.887175 7.5937499,10.78125 7.032977,10.625801 6.7829655,9.9845462 6.9583334,9.4583332 7.1920713,8.7569739 8.007723,8.4513965 8.6770836,8.6979168 9.5194054,9.0081374 9.8810392,10.000428 9.5624998,10.8125 9.176706,11.796029 8.0066258,12.213974 7.052083,11.822916 5.9271874,11.362069 5.4527794,10.013529 5.9166669,8.9166663 6.4522433,7.650295 7.9796682,7.1193239 9.2187504,7.6562502 10.626674,8.2663401 11.214278,9.972936 10.604166,11.354167 9.9197137,12.9037 8.0337446,13.547985 6.5104162,12.864583 4.8192329,12.105877 4.1182274,10.040386 4.8750003,8.3749995"
       transform="translate(0,1025.3622)" />
    <path
       style="fill:#000000;fill-opacity:1;fill-rule:nonzero;stroke:none"
       id="path2994"
       d="m 20.821123,1.7249582 c -0.02754,0.015342 -0.1101,0.061447 -0.08261,0.046026 0.112653,-0.063191 0.21867,-0.1401191 0.338091,-0.1893345 0.06823,-0.02812 -0.122935,0.081767 -0.18257,0.1252421 -0.267021,0.1946625 -0.47172,0.3917813 -0.70421,0.624921 -0.182974,0.1964027 -0.357076,0.4013591 -0.515329,0.618299 -0.03996,0.054777 -0.139157,0.1924523 -0.167206,0.2658656 -0.01034,0.027065 -0.0088,0.057273 -0.01321,0.085909 0.01095,0.01902 0.01575,0.043299 0.03285,0.057059 0.04156,0.033449 0.187029,0.069132 0.223689,0.076552 0.217378,0.043996 0.441057,0.050907 0.6617,0.063039 0.399561,0.016836 0.799579,0.015671 1.19936,0.00992 0.03154,-0.00254 0.06348,-0.00203 0.09463,-0.00762 0.02263,-0.00406 0.04377,-0.014103 0.06566,-0.021154 -0.149689,0.082223 -0.297121,0.1686946 -0.449065,0.2466692 -0.0069,0.00355 0.01221,-0.013842 0.0097,-0.021198 -0.0074,-0.021866 -0.02221,-0.040829 -0.0369,-0.058655 -0.02793,-0.033896 -0.06028,-0.063897 -0.09042,-0.095846 C 20.968419,3.3253182 20.694386,3.1451109 20.432409,2.9512524 20.287407,2.8439527 20.143224,2.7355475 19.998224,2.6282455 19.778846,2.4854024 19.582588,2.2789382 19.335746,2.1814077 c -0.01392,-0.00279 -0.02756,-0.00805 -0.04174,-0.00836 -0.02197,-4.737e-4 -0.03142,0.00859 -0.04799,0.019218 0.157431,-0.08858 0.313622,-0.1793996 0.472293,-0.2657401 0.0065,-0.00353 -0.0111,0.010166 -0.01458,0.016677 -0.0044,0.0083 -0.0058,0.017909 -0.0087,0.026863 -0.03522,0.2292203 0.113065,0.4628032 0.213547,0.6567917 0.265713,0.4556213 0.611845,0.8551718 0.964896,1.2442016 0.128577,0.1283821 0.253987,0.2598381 0.379773,0.3907745 0.189501,0.2336926 0.11765,0.185033 -0.430143,0.3691412 -0.02372,0.00797 -0.02589,-0.042819 -0.03884,-0.064228 -0.04872,-0.062303 -0.07529,-0.1413963 -0.125793,-0.202353 -0.0072,-0.00869 -0.01648,-0.023002 -0.02734,-0.019953 -0.0097,0.00273 -0.01595,0.034012 -0.0069,0.029557 0.159672,-0.078335 0.312131,-0.1705879 0.468197,-0.2558819 -0.03157,0.1332677 0.0023,0.2705784 -0.0174,0.4053372 -0.01622,0.036774 -0.02021,0.061838 -0.05891,0.083155 -0.181679,0.1000637 -0.36307,0.2014549 -0.55148,0.2881819 -0.0264,0.012151 -0.05801,0.00355 -0.08699,0.00571 -0.241424,0.018039 0.04306,-7.999e-4 -0.223054,0.016129 -0.116576,0.00629 -0.233205,0.011531 -0.349828,0.016846 -0.05944,0.00271 -0.120045,-7.73e-4 -0.177224,0.016488 0.585933,-0.3632499 0.362828,-0.4066256 0.543251,-0.2060865 0.01326,0.014743 0.02595,0.03015 0.04076,0.043342 0.01146,0.010213 0.05148,0.019824 0.03766,0.026519 -0.176049,0.085306 -0.36298,0.1460397 -0.544469,0.2190596 -0.04139,-0.041913 -0.08012,-0.086638 -0.12418,-0.1257403 C 19.206642,4.575191 18.759166,4.3359692 18.320955,4.1020325 18.135967,4.0036399 17.949216,3.908204 17.753832,3.8319786 c -0.02295,-0.00895 -0.148617,-0.06069 -0.190232,-0.053128 -0.01349,0.00245 -0.01746,0.021146 -0.0262,0.031719 0.164995,-0.08409 0.315771,-0.2056135 0.494984,-0.2522709 0.04302,-0.011199 0.05583,0.069432 0.0875,0.1006253 0.05063,0.049873 0.104053,0.096949 0.158914,0.14212 0.139202,0.1146156 0.319713,0.2459159 0.47234,0.3388553 0.09015,0.054893 0.184892,0.1018495 0.277338,0.1527742 0.465389,0.2405887 0.966782,0.3925214 1.471079,0.5259047 0.121463,0.031935 0.244029,0.059606 0.368229,0.078495 0.06789,0.010325 0.1205,0.021994 0.18697,0.00634 0.03887,-0.027769 0.02047,-0.014995 0.05509,-0.038495 0,0 -0.442518,0.3563985 -0.442518,0.3563985 l 0,0 c -0.03894,0.016268 -0.01703,0.00921 -0.06646,0.018801 C 20.413609,5.2362502 20.2314,5.1708908 20.051611,5.1258082 19.551989,4.9797184 19.054731,4.8191303 18.59143,4.5776589 18.497867,4.5257853 18.40237,4.4772583 18.310743,4.4220381 18.080741,4.2834244 17.850116,4.1243453 17.649908,3.9443613 17.611937,3.9102262 17.514293,3.8767392 17.54309,3.8345765 c 0.108605,-0.1590104 0.292393,-0.2506461 0.438589,-0.3759692 0.08268,0.00276 0.152659,0.036612 0.227615,0.070561 0.18875,0.085489 0.370814,0.1845577 0.551631,0.2855176 0.494601,0.2733954 0.999038,0.548375 1.420041,0.9299946 -0.136571,0.1233458 -0.262114,0.2601284 -0.409714,0.3700375 -0.0045,0.00337 -0.05098,-0.044271 -0.08326,-0.079719 -0.194574,-0.2136692 -0.04841,-0.1406688 0.392864,-0.42609 0.173042,-0.00698 0.346501,-0.00572 0.519203,-0.020904 0.07062,-0.00582 0.1552,-0.011877 0.226093,-0.021056 0.02848,-0.00369 0.108402,-0.030334 0.08508,-0.013568 -0.133651,0.096097 -0.284051,0.16665 -0.42229,0.2560228 -0.01373,0.00888 0.03273,-0.00581 0.04716,-0.013499 0.01216,-0.00648 0.02034,-0.018598 0.03051,-0.027897 0.04482,-0.1325668 -0.0032,-0.2768093 0.01057,-0.4140232 0.585768,-0.3820225 0.4394,-0.4572803 0.69156,-0.07023 0.01352,0.01951 0.05811,0.042558 0.04055,0.058531 -0.500236,0.4551374 -0.360509,0.4374143 -0.539882,0.213014 C 20.651184,4.4192523 20.532579,4.2834682 20.410799,4.150481 20.068483,3.7477716 19.723842,3.343263 19.444745,2.8929532 19.351276,2.7274612 19.208515,2.501658 19.182597,2.3072185 c -0.0027,-0.020492 4.68e-4,-0.066303 0.0017,-0.089326 2.15e-4,-0.0021 0.0062,-0.068682 0.0095,-0.070813 0.275908,-0.1817662 0.369702,-0.370935 0.611577,-0.276595 0.235436,0.1257091 0.427447,0.3181133 0.642356,0.4735625 0.127689,0.097698 0.301031,0.2312132 0.42894,0.3252514 0.267238,0.1964724 0.549896,0.3730306 0.798416,0.5939612 0.05289,0.051611 0.128059,0.1122023 0.160802,0.1838886 0.0097,0.021326 0.03089,0.055472 0.01196,0.069309 -0.306989,0.2244334 -0.397954,0.3144512 -0.683419,0.3171087 -0.395131,-0.00416 -0.79032,-0.00907 -1.18522,-0.02396 -0.160428,-0.0088 -0.323614,-0.015244 -0.483408,-0.033703 -0.12925,-0.014931 -0.352506,-0.037796 -0.453978,-0.1382725 -0.02381,-0.023577 -0.03145,-0.05918 -0.04717,-0.08877 0.0034,-0.035935 -0.0014,-0.073609 0.01016,-0.1078059 0.02523,-0.074694 0.137723,-0.226044 0.177355,-0.279388 0.163554,-0.2201429 0.341779,-0.4291009 0.52759,-0.6306725 0.177522,-0.1811543 0.277645,-0.2909774 0.469233,-0.4564361 0.327694,-0.2830016 0.703937,-0.4992814 1.084335,-0.7033082 0,0 -0.442188,0.3537088 -0.442188,0.3537088 z"
       inkscape:connector-curvature="0"
       transform="translate(0,1025.3622)" />
  </g>
</svg>
